# xmcd CD database file
#
# Track frame offsets:
#	150
#	25271
#	59918
#	94185
#	124283
#
# Disc length: 2648 seconds
#
# Revision: 0
# Processed by: cddbd v1.5.1PL2 Copyright (c) Steve Scherf et al.
# Submitted via: CDex 1.51
#
DISCID=460a5605
DTITLE=Pyramids - Birth Speed Merging
DYEAR=1975
DGENRE=Jazz
TTITLE0=Birth Speed Merging part I (Aomawa)
TTITLE1=Birth Speed Merging part II (BSM)
TTITLE2=Birth Speed Merging part III (Reaffirmation)
TTITLE3=Jamaican Carnival
TTITLE4=Black Man and Woman of the Nile
EXTD=YEAR: 1975
EXTT0=
EXTT1=
EXTT2=
EXTT3=
EXTT4=
PLAYORDER=
